<?xml version="1.0" encoding="UTF-8" standalone="no"?>
<!-- Created with Inkscape (http://www.inkscape.org/) -->

<svg
   width="416.23282"
   height="330.30582"
   viewBox="0 0 110.12826 87.393412"
   version="1.1"
   id="svg5"
   xml:space="preserve"
   inkscape:version="1.2.1 (9c6d41e, 2022-07-14)"
   sodipodi:docname="pasoFino1.svg"
   xmlns:inkscape="http://www.inkscape.org/namespaces/inkscape"
   xmlns:sodipodi="http://sodipodi.sourceforge.net/DTD/sodipodi-0.dtd"
   xmlns="http://www.w3.org/2000/svg"
   xmlns:svg="http://www.w3.org/2000/svg"><sodipodi:namedview
     id="namedview7"
     pagecolor="#ffffff"
     bordercolor="#666666"
     borderopacity="1.0"
     inkscape:showpageshadow="2"
     inkscape:pageopacity="0.0"
     inkscape:pagecheckerboard="0"
     inkscape:deskcolor="#d1d1d1"
     inkscape:document-units="px"
     showgrid="false"
     inkscape:zoom="0.42404602"
     inkscape:cx="450.42281"
     inkscape:cy="130.88202"
     inkscape:window-width="1292"
     inkscape:window-height="704"
     inkscape:window-x="0"
     inkscape:window-y="0"
     inkscape:window-maximized="1"
     inkscape:current-layer="layer1" /><defs
     id="defs2" /><g
     inkscape:label="Capa 1"
     inkscape:groupmode="layer"
     id="layer1"
     transform="translate(-22.178087,-59.989308)"><path
       style="fill:none;stroke:#000000;stroke-width:0.264583px;stroke-linecap:butt;stroke-linejoin:miter;stroke-opacity:1"
       d="m 60.230798,83.05334 c 12.790171,3.03384 27.218473,1.636718 35.710252,-4.545362 0,0 16.00983,-15.616032 26.55294,-12.150208 0,0 -4.2599,-3.888496 -1.45544,-6.190142 0,0 3.53778,3.536917 2.68123,6.308198 l 1.87639,0.274887 c 0,0 0.008,-4.715314 2.262,-5.455097 0,0 2.40592,5.801077 0.71566,8.296608 l 2.90657,6.57533 c 0,0 -2.90054,3.622227 0.63896,15.641877 0,0 -2.16592,4.63346 -6.83944,3.08538 0,0 -4.10393,-1.6308 -2.12543,-5.67828 l -2.34731,-5.12678 c 0,0 -1.57565,-0.32746 -2.25038,-2.06899 0,0 0.63638,8.60683 -4.95616,14.68323 0,0 -1.71439,9.738259 -6.8248,13.033029 0,0 -6.73991,13.24416 -4.91307,17.50061 0,0 -4.50247,7.81275 -2.8497,11.75984 0,0 -0.0405,3.30555 1.73463,4.46801 0,0 0.47998,1.78806 2.33224,3.01428 0,0 -4.48007,1.89147 -7.95925,-0.88671 l 1.17409,-1.87466 -2.25123,-3.89367 c 0,0 3.96906,-10.53319 1.67733,-12.49231 0,0 2.3094,-14.05675 0.39811,-16.14598 0,0 -17.31663,4.90446 -29.06398,-3.30167 0,0 -2.279671,-3.2616 -3.385254,1.84451 0,0 -4.407681,9.35824 -7.470653,11.63145 0,0 0.265409,4.50505 -1.045262,4.72565 0,0 0.177082,12.07739 2.19867,12.87319 0,0 -0.319697,2.29604 0.965553,2.68511 0,0 -1.500248,1.07628 0.733752,3.62869 0,0 -3.882034,1.93584 -6.188849,-0.63983 l 1.06939,-2.46322 c 0,0 -2.826431,-1.32618 -2.692003,-3.00049 0,0 0.813892,-9.7723 -1.369268,-12.59916 0,0 0.802258,-2.64978 -0.816476,-4.82131 0,0 5.511971,-9.84511 -1.42011,-19.38949 0,0 -10.994212,-7.527519 1.265431,-14.472099 0,0 6.123513,-1.024771 11.330867,-4.834421 z"
       id="path304"
       sodipodi:nodetypes="cccccccccccccccccccccccccccccccccccccccc" /><path
       style="fill:none;stroke:#000000;stroke-width:1;stroke-linecap:butt;stroke-linejoin:miter;stroke-opacity:1"
       d="m 41.994609,93.456431 -10.871414,9.281309 1.503601,-0.0969 -8.199964,8.60338 2.00011,-1.53604 c 0,0 -4.423121,5.85558 -3.635041,7.36489 0,0 2.298456,-1.71251 3.017788,0.52931 l 2.559564,-3.88477 0.04981,2.0926 4.988361,-5.81513 -0.05582,1.35801 2.221009,-3.87228 1.152206,1.0373 0.333522,-3.94142 0.923634,1.10675 4.329206,-8.712389 z"
       id="path402" /><path
       style="fill:#000000;stroke:#000000;stroke-width:1;paint-order:markers fill stroke"
       d="m 98.25987,146.69446 c -0.257378,-0.0839 -0.980741,-0.36874 -1.607473,-0.63299 l -1.139515,-0.48047 0.572203,-0.98024 0.572204,-0.98024 -1.092094,-1.84437 -1.092094,-1.84437 1.003059,-3.61519 c 1.118076,-4.0297 1.49357,-7.36387 0.944809,-8.38924 -0.270629,-0.50568 -0.242509,-1.57765 0.117715,-4.48733 0.60615,-4.89611 0.63363,-11.1464 0.0525,-11.94114 -0.408741,-0.55899 -0.504724,-0.55847 -3.353731,0.0184 -2.304632,0.46662 -4.202766,0.58922 -8.860464,0.57234 -5.350375,-0.0194 -6.218211,-0.0998 -8.913067,-0.82571 -3.17646,-0.85563 -6.755926,-2.49561 -8.320569,-3.81217 -1.357309,-1.1421 -2.471642,-1.06351 -3.030489,0.21373 -0.243996,0.55765 -0.80721,1.84669 -1.25158,2.86454 -1.204442,2.75879 -4.462052,8.08779 -5.786895,9.46656 -1.062988,1.10625 -1.175179,1.39277 -1.297485,3.31357 -0.08324,1.30716 -0.29373,2.2014 -0.556403,2.36374 -0.826632,0.51089 0.28062,11.30108 1.323663,12.89913 0.426159,0.65291 0.560866,1.1633 1.126371,4.26761 0.140658,0.77214 0.357661,1.64101 0.482227,1.93082 0.181504,0.42228 0.0044,0.56858 -0.891503,0.73666 -1.376921,0.25831 -3.117766,-0.042 -3.598013,-0.62064 -0.273937,-0.33007 -0.240044,-0.71585 0.143166,-1.62961 0.470336,-1.1215 0.467156,-1.21688 -0.05033,-1.50914 -0.303818,-0.17158 -0.953648,-0.69698 -1.444059,-1.16755 -0.873794,-0.83844 -0.887568,-0.90407 -0.687493,-3.27574 0.243507,-2.88649 -0.263012,-8.23722 -0.931132,-9.83626 -0.262705,-0.62875 -0.477642,-1.75848 -0.477642,-2.51052 0,-0.75204 -0.154826,-1.81149 -0.344056,-2.35431 -0.276122,-0.79208 -0.239525,-1.24788 0.185341,-2.30837 0.685908,-1.71208 1.408094,-5.50257 1.401196,-7.35438 -0.01609,-4.32126 -2.987649,-5.99799 -5.997022,-9.195 -4.055184,-4.308027 -4.805677,-11.359504 -1.348322,-14.50169 1.580846,-1.436738 3.427563,-4.18233 6.480334,-4.771435 4.06424,-0.784294 7.981084,-0.296871 9.347041,-1.262348 0.763423,-0.539597 4.634834,0.746691 13.304021,0.646628 10.156269,-0.117229 11.266116,-1.854639 17.180834,-3.269438 4.276357,-1.022903 5.311716,-1.536279 8.458699,-4.19418 5.422888,-4.580099 10.874058,-7.891296 15.442748,-9.38036 2.25008,-0.733361 5.76904,-0.981765 7.4094,-0.523028 0.9854,0.275571 1.20438,-0.343967 0.36717,-1.038786 -0.63883,-0.530185 -1.6944,-2.607434 -1.68828,-3.322376 0.003,-0.307112 0.14405,-0.768969 0.31427,-1.026348 0.26256,-0.396994 0.40691,-0.349681 0.95185,0.311976 0.97899,1.188686 1.83436,3.163771 1.842,4.253267 0.005,0.746943 0.17243,1.021905 0.70879,1.165646 1.56597,0.419663 1.79383,0.276259 1.79434,-1.129261 5.3e-4,-1.377852 0.81879,-3.387145 1.4614,-3.588461 0.81299,-0.254693 1.72701,5.491149 1.06906,6.720533 -0.29684,0.554664 -0.1252,1.177377 1.06353,3.858469 l 1.4175,3.197061 -0.47815,1.906566 c -0.78671,3.136929 -0.55125,6.805964 0.80656,12.567949 l 0.38976,1.653974 -1.28868,1.288685 c -1.17171,1.171704 -1.46004,1.301078 -3.17631,1.425223 -1.85692,0.134315 -1.90793,0.116229 -3.13626,-1.112102 -1.29799,-1.297985 -1.51697,-2.135545 -0.94895,-3.629552 0.4522,-1.189363 -1.46689,-5.206859 -3.3048,-6.918401 -0.77481,-0.721532 -1.45671,-1.151996 -1.51535,-0.956585 -0.0586,0.195408 -0.18444,1.414957 -0.27957,2.710111 -0.28375,3.863152 -1.61053,7.566273 -3.69435,10.311143 -0.68531,0.902718 -1.27818,2.259264 -1.73111,3.961035 -1.01058,3.796925 -2.71602,7.091385 -4.71159,9.101525 -1.2872,1.2966 -2.01126,2.42182 -3.01463,4.68483 -2.30735,5.20405 -3.31156,8.58741 -3.47362,11.70324 -0.1219,2.34366 -0.32714,3.2149 -1.24162,5.27083 -1.598093,3.59282 -2.111512,6.36757 -1.6503,8.91895 0.543954,3.00912 0.717954,3.44884 2.25051,5.68737 l 1.4018,2.04754 -1.13261,0.18732 c -1.294661,0.21412 -2.175411,0.21177 -2.848459,-0.008 z"
       id="path499"
       sodipodi:nodetypes="sscccccsssssssssssssssssssssssssssssssssssssssssssssscsscssssssssssssssscsss" /><path
       style="stroke-width:1;paint-order:markers fill stroke"
       d="m 25.682694,116.82075 c 0,-0.0872 -0.247698,-0.27663 -0.550439,-0.421 -0.547092,-0.26089 -1.045369,-0.21391 -1.992278,0.18782 -0.243584,0.10334 -0.267952,0.0596 -0.183425,-0.32952 0.177998,-0.81933 1.298112,-2.95118 2.480278,-4.72056 0.641847,-0.96068 1.137724,-1.83149 1.101944,-1.93515 -0.03578,-0.10366 1.410552,-1.73274 3.214066,-3.62019 l 3.279116,-3.43172 -0.578464,-0.078 -0.578466,-0.078 4.976183,-4.246829 4.976182,-4.24683 0.134015,1.51705 0.134016,1.51705 -2.076344,4.162229 -2.076344,4.16223 -0.494146,-0.57164 -0.494147,-0.57164 -0.09127,0.46508 c -0.0502,0.2558 -0.138287,1.15477 -0.195747,1.99773 l -0.104473,1.53264 -0.512062,-0.49631 -0.512061,-0.49631 -0.230338,0.36755 c -0.126685,0.20216 -0.548487,0.92409 -0.93734,1.6043 -0.634714,1.1103 -0.712321,1.19219 -0.759044,0.80098 -0.0475,-0.39768 -0.263303,-0.18913 -2.469849,2.38685 l -2.417804,2.82262 -0.04644,-0.93282 c -0.02553,-0.51304 -0.09574,-0.93146 -0.155988,-0.92982 -0.06025,0.002 -0.663247,0.84397 -1.339987,1.87185 -1.127345,1.71227 -1.499341,2.13662 -1.499341,1.71035 z"
       id="path503" /><path
       style="fill:none;stroke:#000000;stroke-width:1;stroke-linecap:butt;stroke-linejoin:miter;stroke-opacity:1"
       d="m 110.63405,104.93015 10.51514,10.71012 c 0,0 1.89074,2.9528 -0.52219,4.35851 0,0 -2.9595,5.79347 -2.83032,7.59281 0,0 -3.55054,0.61115 -3.41101,2.11375 l -3.81803,2.43669 c 0,0 -1.92425,-3.94356 -0.0981,-4.91116 0,0 1.82188,-1.64031 2.46106,-0.93837 0,0 2.80046,-0.82624 2.80046,-2.12837 0,0 2.04185,-5.58386 0.91643,-6.8799 l -10.92887,-5.70999 z"
       id="path571" /><path
       style="stroke-width:1;paint-order:markers fill stroke"
       d="m 110.25187,130.6961 c -0.17721,-0.57371 -0.32219,-1.39756 -0.32219,-1.83077 0,-0.71122 0.0584,-0.84324 0.60193,-1.36026 0.79295,-0.75432 1.88239,-1.29867 2.15173,-1.07514 0.26223,0.21764 2.21907,-0.67062 2.74489,-1.24599 0.35569,-0.38919 1.07007,-2.50238 1.52164,-4.50114 0.23923,-1.0589 0.26019,-2.84253 0.0382,-3.25164 -0.10572,-0.19482 -2.29512,-1.42755 -5.55243,-3.12625 l -5.37789,-2.80459 2.25087,-3.03526 c 1.23797,-1.66939 2.3022,-3.03525 2.36494,-3.03525 0.0627,0 2.43782,2.35843 5.27794,5.24096 4.47645,4.5433 5.19803,5.34124 5.42054,5.9943 0.14118,0.41434 0.25669,0.95837 0.25669,1.20894 0,0.5877 -0.42633,1.48341 -0.80166,1.68428 -0.56386,0.30177 -2.75954,5.26712 -3.11766,7.05034 -0.16625,0.82782 -0.19864,0.87032 -0.74006,0.97102 -1.33613,0.24852 -2.82431,1.21899 -2.82954,1.84519 -10e-4,0.16807 -2.72702,1.99253 -3.31215,2.21706 -0.20252,0.0777 -0.3185,-0.11279 -0.57579,-0.9458 z"
       id="path573" /><path
       style="fill:none;stroke:#000000;stroke-width:1;stroke-linecap:butt;stroke-linejoin:miter;stroke-opacity:1"
       d="m 49.969132,106.49599 c 0,0 1.574656,2.74278 0.01208,7.10652 -0.209498,0.58506 -2.376856,3.39634 -2.973605,3.59309 0,0 14.00031,2.47657 15.81767,8.55599 0,0 1.21243,2.38006 -0.21457,2.94362 l -1.67776,1.33825 3.6847,3.00566 2.07846,-3.40722 c 0,0 -0.73935,-3.73296 0.12753,-4.59899 0,0 1.32877,-3.15819 -1.2288,-4.31461 0,0 -6.38963,-1.72861 -9.04975,-7.45213 0,0 0.811546,-9.16747 -6.575955,-6.77018 z"
       id="path575"
       sodipodi:nodetypes="cscccccccccc" /><path
       style="stroke-width:1;paint-order:markers fill stroke"
       d="m 62.925284,131.31311 -1.572585,-1.26844 0.50061,-0.39855 c 1.756047,-1.39802 1.779815,-1.43323 1.642697,-2.43361 -0.318373,-2.32278 -1.759698,-4.30227 -4.309245,-5.91823 -1.904327,-1.207 -5.392882,-2.62374 -8.66726,-3.51986 -2.326116,-0.63661 -2.578044,-0.75237 -2.308648,-1.06076 1.243708,-1.42374 2.448231,-4.4823 1.740317,-8.48732 -0.235905,-1.33463 -0.940701,-5.71624 -1.975885,-7.3188 -0.195717,-0.30299 3.24474,4.46984 4.010457,4.75838 1.706404,0.64299 3.307993,3.0551 3.956445,5.95869 0.489074,2.18995 1.028014,3.23381 2.521905,4.88461 1.464643,1.61848 3.815537,3.21366 5.998109,4.06996 0.860528,0.33762 1.755712,0.85682 1.989302,1.15378 0.529352,0.67296 0.562792,2.2207 0.06863,3.17631 -0.278095,0.53778 -0.333541,1.12721 -0.253169,2.69139 l 0.10291,2.00281 -0.874969,1.48904 c -0.481235,0.81898 -0.902436,1.48905 -0.936004,1.48905 -0.03357,0 -0.768694,-0.5708 -1.633614,-1.26845 z"
       id="path577"
       sodipodi:nodetypes="ccsssssssssssssscsssc" /></g></svg>
