<?xml version="1.0" encoding="UTF-8" standalone="no"?>
<!-- Created with Inkscape (http://www.inkscape.org/) -->

<svg
   width="416.23294"
   height="330.24136"
   viewBox="0 0 110.12829 87.376359"
   version="1.1"
   id="svg5"
   xml:space="preserve"
   inkscape:version="1.2.1 (9c6d41e, 2022-07-14)"
   sodipodi:docname="pasoFino2.svg"
   xmlns:inkscape="http://www.inkscape.org/namespaces/inkscape"
   xmlns:sodipodi="http://sodipodi.sourceforge.net/DTD/sodipodi-0.dtd"
   xmlns="http://www.w3.org/2000/svg"
   xmlns:svg="http://www.w3.org/2000/svg"><sodipodi:namedview
     id="namedview7"
     pagecolor="#ffffff"
     bordercolor="#666666"
     borderopacity="1.0"
     inkscape:showpageshadow="2"
     inkscape:pageopacity="0.0"
     inkscape:pagecheckerboard="0"
     inkscape:deskcolor="#d1d1d1"
     inkscape:document-units="px"
     showgrid="false"
     inkscape:zoom="0.42404602"
     inkscape:cx="-16.507642"
     inkscape:cy="137.95672"
     inkscape:window-width="1292"
     inkscape:window-height="704"
     inkscape:window-x="0"
     inkscape:window-y="0"
     inkscape:window-maximized="1"
     inkscape:current-layer="layer1" /><defs
     id="defs2" /><g
     inkscape:label="Capa 1"
     inkscape:groupmode="layer"
     id="layer1"
     transform="translate(-146.12427,-58.808944)"><path
       style="fill:none;stroke:#000000;stroke-width:0.264583px;stroke-linecap:butt;stroke-linejoin:miter;stroke-opacity:1"
       d="m 184.17698,81.872976 c 12.79017,3.03384 27.21847,1.636718 35.71025,-4.545362 0,0 16.00983,-15.616032 26.55294,-12.150208 0,0 -4.2599,-3.888496 -1.45544,-6.190142 0,0 3.53778,3.536917 2.68123,6.308198 l 1.87639,0.274887 c 0,0 0.008,-4.715314 2.262,-5.455097 0,0 2.40592,5.801077 0.71566,8.296608 l 2.90657,6.57533 c 0,0 -2.90054,3.622227 0.63896,15.641881 0,0 -2.16592,4.63346 -6.83944,3.08538 0,0 -4.10393,-1.6308 -2.12543,-5.678284 l -2.34731,-5.12678 c 0,0 -1.57565,-0.32746 -2.25038,-2.06899 0,0 0.63638,8.606834 -4.95616,14.683234 0,0 -1.71439,9.738249 -6.8248,13.033019 0,0 -6.73991,13.24416 -4.91307,17.50061 0,0 -4.50247,7.81275 -2.8497,11.75984 0,0 -0.0405,3.30555 1.73463,4.46801 0,0 0.47998,1.78806 2.33224,3.01428 0,0 -4.48007,1.89147 -7.95925,-0.88671 l 1.17409,-1.87466 -2.25123,-3.89367 c 0,0 3.96906,-10.53319 1.67733,-12.49231 0,0 2.3094,-14.05675 0.39811,-16.14598 0,0 -17.31663,4.90446 -29.06398,-3.30167 0,0 -2.27967,-3.2616 -3.38525,1.84451 0,0 -4.40769,9.35824 -7.47066,11.63145 0,0 0.26541,4.50505 -1.04526,4.72565 0,0 0.17708,12.07739 2.19867,12.87319 0,0 0.0429,1.83244 0.96555,2.68511 0,0 -1.50024,1.07628 0.73376,3.62869 0,0 -3.88204,1.93584 -6.18885,-0.63983 l 1.06939,-2.46322 c 0,0 -2.82643,-1.32618 -2.69201,-3.00049 0,0 0.8139,-9.7723 -1.36926,-12.59916 0,0 0.80225,-2.64978 -0.81648,-4.82131 0,0 5.51197,-9.84511 -1.42011,-19.38949 0,0 -10.99421,-7.527509 1.26543,-14.472093 0,0 6.12351,-1.024771 11.33087,-4.834421 z"
       id="path304-2"
       sodipodi:nodetypes="cccccccccccccccccccccccccccccccccccccccc" /><path
       style="fill:none;stroke:#000000;stroke-width:1;stroke-linecap:butt;stroke-linejoin:miter;stroke-opacity:1"
       d="m 165.94079,92.276071 -10.87142,9.281299 1.50361,-0.0969 -8.19997,8.60338 2.00011,-1.53604 c 0,0 -4.42312,5.85558 -3.63504,7.36489 0,0 2.29846,-1.71251 3.01779,0.52931 l 2.55956,-3.88477 0.0498,2.0926 4.98836,-5.81513 -0.0558,1.35801 2.22101,-3.87228 1.15221,1.0373 0.33352,-3.94142 0.92363,1.10675 4.32921,-8.712379 z"
       id="path402-7" /><path
       style="fill:#000000;stroke:#000000;stroke-width:1;paint-order:markers fill stroke"
       d="m 222.20605,145.51409 c -0.25738,-0.0839 -0.98074,-0.36874 -1.60747,-0.63299 l -1.13952,-0.48047 0.57221,-0.98024 0.5722,-0.98024 -1.0921,-1.84437 -1.09209,-1.84437 1.00306,-3.61519 c 1.11808,-4.0297 1.49357,-7.36387 0.94481,-8.38924 -0.27063,-0.50568 -0.24251,-1.57765 0.11771,-4.48733 0.60615,-4.89611 0.63363,-11.1464 0.0525,-11.94114 -0.40874,-0.55899 -0.50472,-0.55847 -3.35373,0.0184 -2.30463,0.46662 -4.20276,0.58922 -8.86046,0.57234 -5.35038,-0.0194 -6.21821,-0.0998 -8.91307,-0.82571 -3.17646,-0.85563 -6.75592,-2.49561 -8.32057,-3.81217 -1.35731,-1.1421 -2.47164,-1.06351 -3.03049,0.21373 -0.24399,0.55765 -0.80721,1.84669 -1.25158,2.86454 -1.20444,2.75879 -4.46205,8.08779 -5.78689,9.46656 -1.06299,1.10625 -1.17518,1.39277 -1.29749,3.31357 -0.0832,1.30716 -0.29373,2.2014 -0.5564,2.36374 -0.82663,0.51089 0.28062,11.30108 1.32366,12.89913 0.42616,0.65291 0.56087,1.1633 1.12637,4.26761 0.14066,0.77214 0.35767,1.64101 0.48223,1.93082 0.18151,0.42228 0.004,0.56858 -0.8915,0.73666 -1.37692,0.25831 -3.11777,-0.042 -3.59801,-0.62064 -0.27394,-0.33007 -0.24005,-0.71585 0.14316,-1.62961 0.47034,-1.1215 0.46716,-1.21688 -0.0503,-1.50914 -0.30382,-0.17158 -0.95365,-0.69698 -1.44406,-1.16755 -0.87379,-0.83844 -0.88757,-0.90407 -0.68749,-3.27574 0.24351,-2.88649 -0.26301,-8.23722 -0.93113,-9.83626 -0.26271,-0.62875 -0.47764,-1.75848 -0.47764,-2.51052 0,-0.75204 -0.15483,-1.81149 -0.34406,-2.35431 -0.27612,-0.79208 -0.23953,-1.24788 0.18534,-2.30837 0.68591,-1.71208 1.40809,-5.50257 1.4012,-7.35438 -0.0161,-4.32126 -2.98765,-5.99799 -5.99703,-9.195 -4.05518,-4.308019 -4.80567,-11.359499 -1.34832,-14.501684 1.58085,-1.436738 3.42757,-4.18233 6.48034,-4.771435 4.06424,-0.784294 7.98108,-0.296871 9.34704,-1.262348 0.76342,-0.539597 4.63483,0.746691 13.30402,0.646628 10.15627,-0.117229 11.26611,-1.854639 17.18083,-3.269438 4.27636,-1.022903 5.31172,-1.536279 8.4587,-4.19418 5.42289,-4.580099 10.87406,-7.891296 15.44275,-9.38036 2.25008,-0.733361 5.76904,-0.981765 7.4094,-0.523028 0.9854,0.275571 1.20438,-0.343967 0.36717,-1.038786 -0.63883,-0.530185 -1.6944,-2.607434 -1.68828,-3.322376 0.003,-0.307112 0.14405,-0.768969 0.31427,-1.026348 0.26256,-0.396994 0.40691,-0.349681 0.95185,0.311976 0.97899,1.188686 1.83436,3.163771 1.842,4.253267 0.005,0.746943 0.17243,1.021905 0.70879,1.165646 1.56597,0.419663 1.79383,0.276259 1.79434,-1.129261 5.3e-4,-1.377852 0.81879,-3.387145 1.4614,-3.588461 0.81299,-0.254693 1.72701,5.491149 1.06906,6.720533 -0.29684,0.554664 -0.1252,1.177377 1.06353,3.858469 l 1.4175,3.197061 -0.47815,1.906566 c -0.78671,3.136929 -0.55125,6.805964 0.80656,12.56795 l 0.38976,1.65397 -1.28868,1.28869 c -1.17171,1.1717 -1.46004,1.30108 -3.17631,1.42522 -1.85692,0.13432 -1.90793,0.11623 -3.13626,-1.1121 -1.29799,-1.29799 -1.51697,-2.13555 -0.94895,-3.629553 0.4522,-1.189363 -1.46689,-5.206859 -3.3048,-6.918401 -0.77481,-0.721532 -1.45671,-1.151996 -1.51535,-0.956585 -0.0586,0.195408 -0.18444,1.414957 -0.27957,2.710111 -0.28375,3.863152 -1.61053,7.566268 -3.69435,10.311138 -0.68531,0.90272 -1.27818,2.25927 -1.73111,3.96104 -1.01058,3.796919 -2.71602,7.091379 -4.71159,9.101519 -1.2872,1.2966 -2.01126,2.42182 -3.01463,4.68483 -2.30735,5.20405 -3.31156,8.58741 -3.47362,11.70324 -0.1219,2.34366 -0.32714,3.2149 -1.24162,5.27083 -1.59809,3.59282 -2.11151,6.36757 -1.6503,8.91895 0.54395,3.00912 0.71795,3.44884 2.25051,5.68737 l 1.4018,2.04754 -1.13261,0.18732 c -1.29466,0.21412 -2.17541,0.21177 -2.84846,-0.008 z"
       id="path499-0"
       sodipodi:nodetypes="sscccccsssssssssssssssssssssssssssssssssssssssssssssscsscssssssssssssssscsss" /><path
       style="stroke-width:1;paint-order:markers fill stroke"
       d="m 149.62887,115.64038 c 0,-0.0872 -0.24769,-0.27663 -0.55043,-0.421 -0.5471,-0.26089 -1.04537,-0.21391 -1.99228,0.18782 -0.24359,0.10334 -0.26796,0.0596 -0.18343,-0.32952 0.178,-0.81933 1.29811,-2.95118 2.48028,-4.72056 0.64185,-0.96068 1.13772,-1.83149 1.10194,-1.93515 -0.0358,-0.10366 1.41056,-1.73274 3.21407,-3.62019 l 3.27912,-3.43172 -0.57847,-0.078 -0.57846,-0.078 4.97618,-4.246819 4.97618,-4.24683 0.13402,1.51705 0.13401,1.51705 -2.07634,4.16222 -2.07635,4.162229 -0.49414,-0.57164 -0.49415,-0.57164 -0.0913,0.46508 c -0.0502,0.2558 -0.13829,1.15477 -0.19575,1.99773 l -0.10447,1.53264 -0.51206,-0.49631 -0.51206,-0.49631 -0.23034,0.36755 c -0.12669,0.20216 -0.54849,0.92409 -0.93734,1.6043 -0.63471,1.1103 -0.71232,1.19219 -0.75904,0.80098 -0.0475,-0.39768 -0.26331,-0.18913 -2.46985,2.38685 l -2.41781,2.82262 -0.0464,-0.93282 c -0.0255,-0.51304 -0.0957,-0.93146 -0.15598,-0.92982 -0.0602,0.002 -0.66325,0.84397 -1.33999,1.87185 -1.12735,1.71227 -1.49934,2.13662 -1.49934,1.71035 z"
       id="path503-9" /><path
       style="fill:none;stroke:#000000;stroke-width:0.75;stroke-linecap:butt;stroke-linejoin:miter;stroke-opacity:1"
       d="m 233.06759,106.11827 3.48857,13.54576 c 0,0 0.92065,2.39511 -0.34789,4.19552 0,0 -1.22296,5.21032 -1.31248,7.01207 0,0 -1.29438,3.14035 -1.33772,4.64879 l -0.15656,3.46443 c 0,0 -7.20868,-2.2575 -5.27886,-2.997 2.62985,-1.75966 0.20537,-1.73412 2.67794,-2.7372 0.66035,-0.33947 1.86347,-3.38892 0.82093,-4.8809 0,0 1.22739,-6.1959 0.26708,-7.61861 l -7.87122,-11.13517 z"
       id="path571-3"
       sodipodi:nodetypes="cccccccccccc" /><path
       style="fill:#000000;stroke-width:0.75;paint-order:markers fill stroke"
       d="m 232.8204,138.61065 c -1.76174,-0.54439 -4.8686,-1.99121 -4.83675,-2.25242 0.006,-0.0489 0.20323,-0.2075 0.43835,-0.35235 0.68015,-0.41901 1.17268,-1.01351 1.23013,-1.48482 0.0414,-0.33997 0.12413,-0.45625 0.47972,-0.67487 1.43296,-0.88099 1.71177,-1.35313 1.94945,-3.30123 0.12542,-1.02801 0.11982,-1.28197 -0.0385,-1.7343 -0.17568,-0.5021 -0.1696,-0.65958 0.11563,-2.99927 0.31053,-2.54718 0.33519,-4.05824 0.0775,-4.75133 -0.0678,-0.18245 -1.87242,-2.80605 -4.01018,-5.8302 -2.13777,-3.02416 -3.86655,-5.51438 -3.84173,-5.5338 0.0818,-0.0641 8.5285,-3.31348 8.5481,-3.28845 0.0619,0.0791 3.66024,14.17751 3.71311,14.54804 0.10122,0.70938 -0.075,1.78473 -0.41139,2.51125 -0.31498,0.68016 -0.92482,3.41879 -1.36837,6.14505 -0.14291,0.87809 -0.37173,1.78481 -0.63972,2.53448 -0.69468,1.94321 -0.88327,3.11112 -0.95357,5.90518 -0.01,0.38079 -0.0549,0.68097 -0.10077,0.66706 -0.0459,-0.0136 -0.20382,-0.0625 -0.35106,-0.10798 z"
       id="path717" /><path
       style="fill:none;stroke:#000000;stroke-width:0.5;stroke-linecap:butt;stroke-linejoin:miter;stroke-opacity:1"
       d="m 173.72682,104.41205 c 0,0 1.20124,8.95583 -0.64887,12.7853 0,0 9.958,6.65245 10.40523,13.63839 0,0 1.63123,1.69068 0.20767,3.09097 l -0.82725,1.80358 c 0,0 1.88803,2.79368 4.07334,1.9785 l 1.31498,-3.78035 c 0,0 -3.02549,-8.82915 -1.68035,-10.10535 0,0 0.28006,-3.71831 -0.81087,-4.69205 l -4.84888,-4.6481 z"
       id="path721" /><path
       style="fill:#000000;stroke-width:0.5;paint-order:markers fill stroke"
       d="m 185.44216,137.66843 c -0.50005,-0.15114 -1.23318,-0.62745 -1.74891,-1.13624 -0.3061,-0.30199 -0.59185,-0.61787 -0.63498,-0.70195 -0.0626,-0.12205 0.006,-0.32588 0.34047,-1.01081 0.23039,-0.47186 0.53251,-1.03066 0.67137,-1.24178 0.22936,-0.34873 0.25228,-0.43794 0.2505,-0.97492 -0.002,-0.60098 -0.16051,-1.04323 -0.58784,-1.64017 -0.079,-0.11039 -0.19779,-0.5283 -0.26705,-0.93974 -0.59413,-3.52917 -3.4716,-7.47752 -8.28159,-11.36365 -0.71382,-0.57672 -1.60217,-1.24367 -1.95902,-1.4708 -0.0123,-0.008 0.0479,-0.19258 0.13387,-0.41057 0.65087,-1.65128 0.95154,-4.70661 0.79513,-8.07979 -0.0482,-1.039 -0.12531,-2.26386 -0.17141,-2.72189 -0.0461,-0.45804 -0.0725,-0.8904 -0.0585,-0.9608 0.0146,-0.074 1.47596,1.9069 3.46641,4.69888 l 3.44115,4.82687 2.51822,2.41586 c 2.77602,2.66318 2.78122,2.66981 3.00628,3.83578 0.065,0.33649 0.12532,1.12071 0.13414,1.74272 0.0141,0.99482 -0.003,1.16844 -0.13994,1.44288 -0.13561,0.27121 -0.15514,0.45973 -0.14947,1.44288 0.009,1.60662 0.37889,3.36641 1.45686,6.93628 l 0.48124,1.59371 -0.41793,1.21406 c -0.8239,2.39331 -0.8604,2.48181 -1.04374,2.53098 -0.23853,0.064 -0.9874,0.0471 -1.23521,-0.0278 z"
       id="path729" /></g></svg>
