<?xml version="1.0" encoding="UTF-8" standalone="no"?>
<!-- Created with Inkscape (http://www.inkscape.org/) -->

<svg
   width="416.23291"
   height="318.19351"
   viewBox="0 0 110.12829 84.188698"
   version="1.1"
   id="svg5"
   xml:space="preserve"
   inkscape:version="1.2.1 (9c6d41e, 2022-07-14)"
   sodipodi:docname="pasoFino3.svg"
   xmlns:inkscape="http://www.inkscape.org/namespaces/inkscape"
   xmlns:sodipodi="http://sodipodi.sourceforge.net/DTD/sodipodi-0.dtd"
   xmlns="http://www.w3.org/2000/svg"
   xmlns:svg="http://www.w3.org/2000/svg"><sodipodi:namedview
     id="namedview7"
     pagecolor="#ffffff"
     bordercolor="#666666"
     borderopacity="1.0"
     inkscape:showpageshadow="2"
     inkscape:pageopacity="0.0"
     inkscape:pagecheckerboard="0"
     inkscape:deskcolor="#d1d1d1"
     inkscape:document-units="px"
     showgrid="false"
     inkscape:zoom="0.42404602"
     inkscape:cx="360.8099"
     inkscape:cy="-213.42023"
     inkscape:window-width="1292"
     inkscape:window-height="704"
     inkscape:window-x="0"
     inkscape:window-y="0"
     inkscape:window-maximized="1"
     inkscape:current-layer="layer1" /><defs
     id="defs2" /><g
     inkscape:label="Capa 1"
     inkscape:groupmode="layer"
     id="layer1"
     transform="translate(-81.240801,-112.94996)"><path
       style="fill:none;stroke:#000000;stroke-width:0.264583px;stroke-linecap:butt;stroke-linejoin:miter;stroke-opacity:1"
       d="m 119.29351,136.014 c 12.79017,3.03384 27.21847,1.63671 35.71025,-4.54537 0,0 16.00983,-15.61603 26.55294,-12.1502 0,0 -4.2599,-3.8885 -1.45544,-6.19015 0,0 3.53778,3.53692 2.68123,6.3082 l 1.87639,0.27489 c 0,0 0.008,-4.71532 2.262,-5.4551 0,0 2.40592,5.80108 0.71566,8.29661 l 2.90657,6.57533 c 0,0 -2.90054,3.62223 0.63896,15.64188 0,0 -2.16592,4.63346 -6.83944,3.08538 0,0 -4.10393,-1.6308 -2.12543,-5.67828 l -2.34731,-5.12678 c 0,0 -1.57565,-0.32746 -2.25038,-2.06899 0,0 0.63638,8.60683 -4.95616,14.68323 0,0 -1.71439,9.73825 -6.8248,13.03302 0,0 -6.73991,13.24416 -4.91307,17.50061 -4.4937,7.77366 -6.20994,-0.93446 -6.14189,0.0948 0,0 2.3094,-14.05675 0.39811,-16.14598 0,0 -17.31663,4.90446 -29.06398,-3.30167 0,0 -2.27967,-3.2616 -3.38525,1.84451 0,0 -4.40769,9.35824 -7.47066,11.63145 0,0 0.26541,4.50505 -1.04526,4.72565 -1.99934,2.11469 -3.00681,1.91244 -5.28275,0.48429 0,0 0.80225,-2.64978 -0.81648,-4.82131 0,0 5.51197,-9.84511 -1.42011,-19.38949 0,0 -10.994205,-7.52751 1.26543,-14.47209 0,0 6.12351,-1.02477 11.33087,-4.83442 z"
       id="path304-2-3"
       sodipodi:nodetypes="ccccccccccccccccccccccccccccc" /><path
       style="fill:none;stroke:#000000;stroke-width:1;stroke-linecap:butt;stroke-linejoin:miter;stroke-opacity:1"
       d="m 101.05733,146.41709 -10.871425,9.2813 1.50361,-0.0969 -8.19997,8.60338 2.00011,-1.53604 c 0,0 -4.42312,5.85558 -3.63504,7.36489 0,0 2.29846,-1.71251 3.01779,0.52931 l 2.55956,-3.88477 0.0498,2.0926 4.98836,-5.81513 -0.0558,1.35801 2.22101,-3.87228 1.15221,1.0373 0.33352,-3.94142 0.92363,1.10675 4.329215,-8.71238 z"
       id="path402-7-6" /><path
       style="fill:#000000;stroke:#000000;stroke-width:1;paint-order:markers fill stroke"
       d="m 155.48368,180.888 c -0.27063,-0.50568 -0.24251,-1.57765 0.11771,-4.48733 0.60615,-4.89611 0.63363,-11.1464 0.0525,-11.94114 -0.40874,-0.55899 -0.50472,-0.55847 -3.35373,0.0184 -2.30463,0.46662 -4.20276,0.58922 -8.86046,0.57234 -5.35038,-0.0194 -6.21821,-0.0998 -8.91307,-0.82571 -3.17646,-0.85563 -6.75592,-2.49561 -8.32057,-3.81217 -1.35731,-1.1421 -2.47164,-1.06351 -3.03049,0.21373 -0.24399,0.55765 -0.80721,1.84669 -1.25158,2.86454 -1.20444,2.75879 -4.46205,8.08779 -5.78689,9.46656 -1.06299,1.10625 -1.17518,1.39277 -1.29749,3.31357 -0.0832,1.30716 -0.29373,2.2014 -0.5564,2.36374 -1.8176,4.29744 -5.95892,-0.93183 -4.52707,1.79528 -0.26271,-0.62875 -0.47764,-1.75848 -0.47764,-2.51052 0,-0.75204 -0.15483,-1.81149 -0.34406,-2.35431 -0.27612,-0.79208 -0.23953,-1.24788 0.18534,-2.30837 0.68591,-1.71208 1.40809,-5.50257 1.4012,-7.35438 -0.0161,-4.32126 -2.98765,-5.99799 -5.99702,-9.195 -4.05518,-4.30802 -4.805675,-11.3595 -1.34832,-14.50168 1.58085,-1.43674 3.42756,-4.18233 6.48033,-4.77144 4.06424,-0.78429 7.98108,-0.29687 9.34704,-1.26235 0.76342,-0.53959 4.63483,0.74669 13.30402,0.64663 10.15627,-0.11723 11.26611,-1.85464 17.18083,-3.26944 4.27636,-1.0229 5.31172,-1.53628 8.4587,-4.19418 5.42289,-4.5801 10.87406,-7.89129 15.44275,-9.38036 2.25008,-0.73336 5.76904,-0.98176 7.4094,-0.52303 0.9854,0.27558 1.20438,-0.34396 0.36717,-1.03878 -0.63883,-0.53019 -1.6944,-2.60744 -1.68828,-3.32238 0.003,-0.30711 0.14405,-0.76897 0.31427,-1.02635 0.26256,-0.39699 0.40691,-0.34968 0.95185,0.31198 0.97899,1.18869 1.83436,3.16377 1.842,4.25327 0.005,0.74694 0.17243,1.0219 0.70879,1.16564 1.56597,0.41967 1.79383,0.27626 1.79434,-1.12926 5.3e-4,-1.37785 0.81879,-3.38714 1.4614,-3.58846 0.81299,-0.25469 1.72701,5.49115 1.06906,6.72053 -0.29684,0.55467 -0.1252,1.17738 1.06353,3.85847 l 1.4175,3.19706 -0.47815,1.90657 c -0.78671,3.13693 -0.55125,6.80596 0.80656,12.56795 l 0.38976,1.65397 -1.28868,1.28869 c -1.17171,1.1717 -1.46004,1.30108 -3.17631,1.42522 -1.85692,0.13432 -1.90793,0.11623 -3.13626,-1.1121 -1.29799,-1.29799 -1.51697,-2.13555 -0.94895,-3.62955 0.4522,-1.18937 -1.46689,-5.20686 -3.3048,-6.9184 -0.77481,-0.72154 -1.45671,-1.152 -1.51535,-0.95659 -0.0586,0.19541 -0.18444,1.41496 -0.27957,2.71011 -0.28375,3.86315 -1.61053,7.56627 -3.69435,10.31114 -0.68531,0.90272 -1.27818,2.25927 -1.73111,3.96104 -1.01058,3.79692 -2.71602,7.09138 -4.71159,9.10152 -1.2872,1.2966 -2.01126,2.42182 -3.01463,4.68483 -2.30735,5.20405 -3.31156,8.58741 -3.47362,11.70324 -0.1219,2.34366 -0.32714,3.2149 -1.24162,5.27083 -0.0179,2.66067 -5.45077,1.84591 -3.81799,-1.93357 z"
       id="path499-0-7"
       sodipodi:nodetypes="cssssssssssccssssssssssssssssssssssscsscsssssssssssscc" /><path
       style="stroke-width:1;paint-order:markers fill stroke"
       d="m 84.745405,169.7814 c 0,-0.0872 -0.24769,-0.27663 -0.55043,-0.421 -0.5471,-0.26089 -1.04537,-0.21391 -1.99228,0.18782 -0.24359,0.10334 -0.26796,0.0596 -0.18343,-0.32952 0.178,-0.81933 1.29811,-2.95118 2.48028,-4.72056 0.64185,-0.96068 1.13772,-1.83149 1.10194,-1.93515 -0.0358,-0.10366 1.41056,-1.73274 3.21407,-3.62019 l 3.27912,-3.43172 -0.57847,-0.078 -0.57846,-0.078 4.97618,-4.24682 4.976185,-4.24683 0.13402,1.51705 0.13401,1.51705 -2.076345,4.16222 -2.07635,4.16223 -0.49414,-0.57164 -0.49415,-0.57164 -0.0913,0.46508 c -0.0502,0.2558 -0.13829,1.15477 -0.19575,1.99773 l -0.10447,1.53264 -0.51206,-0.49631 -0.51206,-0.49631 -0.23034,0.36755 c -0.12669,0.20216 -0.54849,0.92409 -0.93734,1.6043 -0.63471,1.1103 -0.71232,1.19219 -0.75904,0.80098 -0.0475,-0.39768 -0.26331,-0.18913 -2.46985,2.38685 l -2.41781,2.82262 -0.0464,-0.93282 c -0.0255,-0.51304 -0.0957,-0.93146 -0.15598,-0.92982 -0.0602,0.002 -0.66325,0.84397 -1.33999,1.87185 -1.12735,1.71227 -1.49934,2.13662 -1.49934,1.71035 z"
       id="path503-9-5" /><path
       style="fill:none;stroke:#000000;stroke-width:0.75;stroke-linecap:butt;stroke-linejoin:miter;stroke-opacity:1"
       d="m 167.64998,161.79205 -1.77356,15.52241 c 0,0 0.92065,2.39511 -0.34789,4.19552 0,0 -1.22296,5.21032 -1.31248,7.01207 0,0 -1.29438,3.14035 -1.33772,4.64879 l -0.15656,3.46443 c 0,0 -7.20868,-2.2575 -5.27886,-2.997 2.62985,-1.75966 0.20537,-1.73412 2.67794,-2.7372 0.66035,-0.33947 1.86347,-3.38892 0.82093,-4.8809 0,0 1.22739,-6.1959 0.26708,-7.61861 l -3.03409,-14.19246 z"
       id="path571-3-3"
       sodipodi:nodetypes="cccccccccccc" /><path
       style="fill:#000000;stroke-width:0.75;paint-order:markers fill stroke"
       d="m 162.14066,196.26108 c -1.76174,-0.54439 -4.8686,-1.99121 -4.83675,-2.25242 0.006,-0.0489 0.20323,-0.2075 0.43835,-0.35235 0.68015,-0.41901 1.17268,-1.01351 1.23013,-1.48482 0.0414,-0.33997 0.12413,-0.45625 0.47972,-0.67487 1.43296,-0.88099 1.71177,-1.35313 1.94945,-3.30123 0.12542,-1.02801 0.11982,-1.28197 -0.0385,-1.7343 -0.17568,-0.5021 -0.1696,-0.65958 0.11563,-2.99927 0.31053,-2.54718 0.33519,-4.05824 0.0775,-4.75133 -0.0678,-0.18245 -0.53972,-3.19238 -2.08166,-6.55956 -1.51456,-3.30738 -1.45277,-8.06997 -1.55615,-8.03112 0.0818,-0.0641 11.37253,-5.32975 11.39213,-5.30472 0.0619,0.0791 -3.39789,19.42046 -3.34502,19.79099 0.10122,0.70938 -0.075,1.78473 -0.41139,2.51125 -0.31498,0.68016 -0.92482,3.41879 -1.36837,6.14505 -0.14291,0.87809 -0.37173,1.78481 -0.63972,2.53448 -0.69468,1.94321 -0.88327,3.11112 -0.95357,5.90518 -0.01,0.38079 -0.0549,0.68097 -0.10077,0.66706 -0.0459,-0.0136 -0.20382,-0.0625 -0.35106,-0.10798 z"
       id="path717-5"
       sodipodi:nodetypes="cssssscssscssssscccc" /><path
       style="fill:none;stroke:#000000;stroke-width:0.5;stroke-linecap:butt;stroke-linejoin:miter;stroke-opacity:1"
       d="m 121.1785,157.41681 c 0,0 -2.81155,8.58749 -6.14247,11.23188 0,0 6.0758,10.31996 3.44158,16.80565 0,0 0.73403,2.2317 -1.15671,2.87389 l -1.52906,1.26461 c 0,0 0.4858,3.33666 2.80819,3.55255 l 2.82764,-2.83278 c 0,0 1.11363,-9.26646 2.87981,-9.83099 0,0 1.86867,-3.22682 1.30953,-4.57799 l -2.34606,-6.29384 z"
       id="path721-6" /><path
       style="fill:#000000;stroke-width:0.5;paint-order:markers fill stroke"
       d="m 117.27143,192.45923 c -0.38462,-0.3535 -0.83778,-1.10116 -1.08105,-1.78356 -0.14438,-0.40503 -0.26439,-0.81372 -0.26668,-0.90819 -0.003,-0.13713 0.14707,-0.29087 0.74604,-0.76229 0.41261,-0.32478 0.92762,-0.69667 1.14445,-0.82643 0.35815,-0.21435 0.41758,-0.28472 0.64941,-0.76908 0.25947,-0.54209 0.30898,-1.00927 0.18364,-1.73263 -0.0232,-0.13375 0.0515,-0.56175 0.16804,-0.96238 0.99918,-3.43652 0.12429,-8.24317 -2.51799,-13.83391 -0.39213,-0.82969 -0.9022,-1.81651 -1.12483,-2.17619 -0.008,-0.0126 0.12686,-0.1526 0.29905,-0.31154 1.304,-1.20413 2.90301,-3.82494 4.22857,-6.93069 0.40827,-0.95664 0.87131,-2.09322 1.02891,-2.52575 0.15761,-0.43253 0.32179,-0.83338 0.36501,-0.89069 0.0453,-0.0603 0.50021,2.35892 1.07898,5.73858 l 1.0006,5.84286 1.21757,3.27037 c 1.34222,3.60517 1.34402,3.6134 1.03982,4.76127 -0.0877,0.33128 -0.37434,1.06375 -0.6368,1.62774 -0.41978,0.90203 -0.51066,1.05095 -0.75329,1.23857 -0.24003,0.18528 -0.33957,0.34657 -0.76186,1.23442 -0.69034,1.45077 -1.12226,3.19638 -1.7034,6.87989 l -0.25945,1.64444 -0.90415,0.91165 c -1.78241,1.79715 -1.85376,1.86099 -2.04024,1.82556 -0.24264,-0.0461 -0.90969,-0.38683 -1.1003,-0.56201 z"
       id="path729-2" /><path
       style="fill:none;stroke:#000000;stroke-width:0.5;stroke-linecap:butt;stroke-linejoin:miter;stroke-opacity:1"
       d="m 113.35111,180.11373 c 0,0 -2.47485,5.19012 -1.93412,7.89634 0,0 -1.3404,1.71438 -2.05175,1.50843 l -3.28874,1.41365 c 0,0 -2.50588,-2.81566 -1.45587,-4.44905 l 2.43865,-0.1732 c 0,0 1.63727,0.54115 2.18575,-0.51703 0,0 -0.95392,-1.05733 -0.0995,-1.52567 0,0 1.19855,-2.86986 0.0757,-4.54203 z"
       id="path511"
       sodipodi:nodetypes="cccccccccc" /><path
       style="fill:#000000;stroke-width:0.5;paint-order:markers fill stroke"
       d="m 105.88716,190.44735 c -0.92909,-1.22055 -1.42743,-2.38081 -1.35873,-3.16347 0.025,-0.28415 0.12879,-0.62542 0.19712,-0.64774 0.0242,-0.008 0.54598,-0.05 1.15946,-0.0936 1.02833,-0.073 1.13792,-0.0745 1.40384,-0.0191 0.34123,0.0712 0.972,0.0788 1.21018,0.0147 0.38233,-0.10295 0.71144,-0.35067 0.86792,-0.65326 0.0567,-0.10956 0.0537,-0.11999 -0.0887,-0.3095 -0.39006,-0.51913 -0.42948,-0.96638 -0.10066,-1.14236 0.10308,-0.0552 0.10898,-0.0705 0.1737,-0.45034 0.15885,-0.93239 0.20735,-2.57981 0.0975,-3.31216 -0.0697,-0.46457 -0.18102,-0.91095 -0.29156,-1.16882 -0.0442,-0.10318 -0.0741,-0.1939 -0.0664,-0.2016 0.0116,-0.0116 3.76753,0.84484 3.97135,0.90553 0.0543,0.0162 0.0231,0.11468 -0.20286,0.6399 -0.76314,1.77384 -1.3719,3.75328 -1.58324,5.14806 -0.0709,0.46786 -0.0982,1.6805 -0.0424,1.8798 0.027,0.0963 -0.0113,0.14767 -0.44371,0.59502 -0.60429,0.62517 -1.09316,0.95568 -1.34293,0.90794 -0.0924,-0.0176 -0.60095,0.19069 -3.02929,1.24098 l -0.30175,0.13052 z"
       id="path582" /><path
       style="fill:none;stroke:#000000;stroke-width:0.5;stroke-linecap:butt;stroke-linejoin:miter;stroke-opacity:1"
       d="m 158.86889,184.39259 c 0,0 -3.7792,4.33358 -3.98601,7.08553 0,0 -1.752,1.29085 -2.38178,0.90122 l -3.54772,0.47734 c 0,0 -1.65655,-3.38574 -0.20603,-4.67666 l 2.39542,0.48886 c 0,0 1.43147,0.96144 2.24427,0.0897 0,0 -0.6345,-1.27488 0.31438,-1.49624 0,0 1.92604,-2.44192 1.29414,-4.35442 z"
       id="path511-9"
       sodipodi:nodetypes="cccccccccc" /><path
       style="fill:#000000;stroke-width:0.5;paint-order:markers fill stroke"
       d="m 148.90136,192.33882 c -0.5667,-1.42541 -0.73473,-2.67694 -0.45812,-3.4123 0.10048,-0.26697 0.2922,-0.56776 0.36402,-0.57089 0.0255,-0.001 0.53932,0.0986 1.14193,0.2216 1.01009,0.20617 1.11605,0.2342 1.35728,0.35905 0.30952,0.16033 0.91502,0.33725 1.16166,0.33955 0.39593,0.004 0.77953,-0.14647 1.0116,-0.39584 0.0841,-0.0903 0.084,-0.10114 -0.002,-0.32196 -0.23612,-0.60489 -0.15383,-1.04627 0.21019,-1.12735 0.11413,-0.0255 0.12393,-0.0386 0.28839,-0.38706 0.4037,-0.85534 0.89336,-2.42906 0.98446,-3.16397 0.0578,-0.46621 0.0706,-0.92608 0.0335,-1.20418 -0.0148,-0.11126 -0.0192,-0.20668 -0.01,-0.21202 0.0143,-0.008 3.40163,1.82671 3.58163,1.93997 0.0479,0.0302 -0.009,0.11667 -0.36744,0.56179 -1.21198,1.50333 -2.33054,3.2462 -2.90912,4.5328 -0.19408,0.43156 -0.54642,1.59221 -0.54626,1.79917 1.1e-4,0.10002 -0.0506,0.1392 -0.58736,0.45381 -0.75013,0.43967 -1.30986,0.62657 -1.5376,0.51343 -0.0843,-0.0418 -0.63009,0.0221 -3.2514,0.38078 l -0.32573,0.0446 z"
       id="path582-1" /></g></svg>
